<?xml version="1.0" encoding="utf-8"?>
<svg viewBox="224.9 100 125 125" width="125px" height="125px" xmlns="http://www.w3.org/2000/svg">
    <path style="fill:#0c544c;fill-opacity:1;fill-rule:nonzero;stroke:none"
        d="M 339.977 124.043 C 337.234 124.043 335.016 121.82 335.016 119.082 C 335.016 116.34 337.234 114.121 339.977 114.121 C 342.715 114.121 344.937 116.34 344.937 119.082 C 344.937 121.82 342.715 124.043 339.977 124.043 M 290.707 208.805 C 287.965 208.805 285.746 206.582 285.746 203.844 C 285.746 201.102 287.965 198.883 290.707 198.883 C 293.445 198.883 295.664 201.102 295.664 203.844 C 295.664 206.582 293.445 208.805 290.707 208.805 M 339.977 110 C 334.961 110 330.895 114.066 330.895 119.082 C 330.895 120.152 331.164 121.148 331.504 122.102 L 288.898 195.125 C 284.781 195.988 281.625 199.469 281.625 203.844 C 281.625 208.859 285.691 212.926 290.707 212.926 C 295.719 212.926 299.785 208.859 299.785 203.844 C 299.785 202.836 299.516 201.914 299.215 201.008 L 342.035 127.746 C 346.027 126.789 349.059 123.367 349.059 119.082 C 349.059 114.066 344.992 110 339.977 110"
        id="path4177" />
    <path style="fill:#073551;fill-opacity:1;fill-rule:nonzero;stroke:none"
        d="M 302.816 124.043 C 300.074 124.043 297.855 121.82 297.855 119.082 C 297.855 116.34 300.074 114.121 302.816 114.121 C 305.555 114.121 307.773 116.34 307.773 119.082 C 307.773 121.82 305.555 124.043 302.816 124.043 M 253.543 208.805 C 250.805 208.805 248.582 206.582 248.582 203.844 C 248.582 201.102 250.805 198.883 253.543 198.883 C 256.285 198.883 258.504 201.102 258.504 203.844 C 258.504 206.582 256.285 208.805 253.543 208.805 M 302.816 110 C 297.797 110 293.734 114.066 293.734 119.082 C 293.734 120.152 294.004 121.148 294.344 122.102 L 251.738 195.125 C 247.617 195.988 244.461 199.469 244.461 203.844 C 244.461 208.859 248.527 212.926 253.543 212.926 C 258.559 212.926 262.625 208.859 262.625 203.844 C 262.625 202.836 262.355 201.914 262.055 201.008 L 304.875 127.746 C 308.867 126.789 311.898 123.367 311.898 119.082 C 311.898 114.066 307.828 110 302.816 110"
        id="path4179" />
    <path style="fill:#073551;fill-opacity:1;fill-rule:nonzero;stroke:none"
        d="M 234.957 139.227 C 237.695 139.227 239.918 141.449 239.918 144.188 C 239.918 146.926 237.695 149.148 234.957 149.148 C 232.215 149.148 229.996 146.926 229.996 144.188 C 229.996 141.449 232.215 139.227 234.957 139.227 M 234.957 153.27 C 239.973 153.27 244.039 149.203 244.039 144.188 C 244.039 143.184 243.766 142.258 243.465 141.352 C 242.262 137.746 238.965 135.105 234.957 135.105 C 234.316 135.105 233.754 135.344 233.148 135.473 C 229.031 136.332 225.875 139.813 225.875 144.188 C 225.875 149.203 229.941 153.27 234.957 153.27"
        id="path4181" />
    <path style="fill:#073551;fill-opacity:1;fill-rule:nonzero;stroke:none"
        d="M 229.996 175.922 C 229.996 173.18 232.219 170.961 234.957 170.961 C 237.695 170.961 239.918 173.18 239.918 175.922 C 239.918 178.66 237.695 180.879 234.957 180.879 C 232.219 180.879 229.996 178.66 229.996 175.922 M 244.039 175.922 C 244.039 174.914 243.766 173.992 243.465 173.086 C 242.262 169.48 238.969 166.84 234.957 166.84 C 234.316 166.84 233.754 167.078 233.148 167.203 C 229.031 168.066 225.875 171.547 225.875 175.922 C 225.875 180.934 229.941 185.004 234.957 185.004 C 239.973 185.004 244.039 180.934 244.039 175.922"
        id="path4183" />
</svg>